<?xml version="1.0" encoding="UTF-8"?>
<svg xmlns="http://www.w3.org/2000/svg" viewBox="0 0 1265 949" width="1265" height="949">
<path d="M0.25 0.25C421.75 0.25 843.25 0.25 1264.75 0.25C1264.75 316.42 1264.75 632.58 1264.75 948.75C843.25 948.75 421.75 948.75 0.25 948.75C0.25 632.58 0.25 316.42 0.25 0.25ZM996.61 381.5C993.08 379.65 988.44 380.46 984.5 380.43C976.17 380.38 967.83 380.47 959.5 380.48C950.17 380.48 940.83 380.42 931.5 380.44C924.35 380.45 916.67 379.67 909.65 381.28C896 384.43 884.69 395.68 881.72 409.37C880.74 413.92 880.57 418.87 881.16 423.49C881.66 427.31 883.06 431.25 884.8 434.67C890.1 445.15 900.73 453.34 912.52 454.82C918.4 455.56 924.58 455.04 930.5 455.06C940.17 455.09 949.83 455.06 959.5 455.05C964.69 455.05 970.37 454.46 975.35 456.2C984.67 459.44 989.76 469.92 986.72 479.27C982.59 491.97 969.31 491.1 958.5 491.12C942.17 491.14 925.83 491.15 909.5 491.16C903.17 491.17 893.59 489.33 888.01 492.5C885.56 496.87 885.58 506.1 887.96 510.5C895.28 512.85 917.54 511.34 926.5 511.32C936.5 511.3 946.5 511.31 956.5 511.31C963.39 511.3 970.65 511.99 977.46 510.79C991.05 508.38 1002.44 497.98 1006.35 484.77C1007.73 480.13 1008.26 475.33 1007.95 470.5C1007.68 466.31 1006.55 462.39 1004.98 458.52C999.82 445.78 987.14 436.41 973.5 435.06C968.24 434.53 962.79 435.01 957.5 435.01C948.83 435 940.17 434.9 931.5 434.94C919.23 435 902.39 436.15 900.72 419.5C900.49 417.24 900.74 414.93 901.35 412.74C904.9 400.13 917.91 400.44 928.5 400.44C943.83 400.44 959.17 400.46 974.5 400.44C981.3 400.43 990.13 401.86 996.5 399.43C999.09 395.09 999 385.95 996.61 381.5ZM554.43 382.5C550.85 380.26 546.66 381 542.5 381.01C534.17 381.03 525.83 381.02 517.5 381.01C508.17 381.01 498.83 380.94 489.5 380.96C483.06 380.97 476.14 380.28 469.79 381.44C455.42 384.06 443.62 394.15 439.76 408.38C438.62 412.61 438.19 417.19 438.58 421.56C438.97 425.86 439.96 429.81 441.7 433.76C446.85 445.43 458.81 454.36 471.52 455.78C477.42 456.44 483.57 455.98 489.5 455.99C498.83 456 508.17 455.93 517.5 456C522.68 456.05 528.48 455.25 533.45 457.02C542.88 460.36 548.03 470.74 544.63 480.22C540.18 492.61 527.36 491.92 516.5 491.97C500.5 492.05 484.5 492.05 468.5 492.02C462 492 451.31 490.63 445.5 492.93C443.02 497.13 443.05 506.89 445.5 511.11C449.2 512.72 453.48 512.1 457.5 512.1C464.5 512.09 471.5 512.09 478.5 512.09C489.83 512.08 501.17 512.17 512.5 512.12C519.68 512.09 527.22 512.83 534.32 511.64C547.98 509.34 559.37 499.51 563.86 486.43C565.31 482.23 565.86 477.93 565.84 473.5C565.81 467.39 564.14 460.76 561.03 455.46C550.24 436.98 536.12 435.82 516.5 435.78C507.83 435.77 499.17 435.8 490.5 435.79C477.71 435.78 459.74 437.43 458.88 419.5C458.46 410.78 464.68 402.43 473.54 401.2C476.8 400.75 480.21 401.09 483.5 401.09C498.83 401.1 514.17 401.04 529.5 401.08C537.08 401.1 546.23 402.43 553.54 400.5C556.68 396.31 556.43 387.25 554.43 382.5ZM690.5 381.74C683.24 379.73 672.24 381.16 664.5 381.16C646.83 381.17 629.17 381.17 611.5 381.16C605.36 381.15 588.4 379.74 583.89 382.5C581.5 386.83 581.88 395.1 583.5 399.72C587.59 401.96 592.89 401.07 597.5 401.08C607.13 401.11 617.56 399.99 627.04 401.5C628.13 411.3 627.4 421.62 627.34 431.5C627.25 447.5 627.31 463.5 627.33 479.5C627.35 486.5 627.28 493.5 627.31 500.5C627.32 504.01 626.78 507.52 628.5 510.65C632.9 513.18 642.22 513.24 646.49 510.5C648.88 503.99 647.34 489.01 647.33 481.5C647.32 463.83 647.36 446.17 647.36 428.5C647.35 419.85 646.04 409.92 647.86 401.5C657.54 400.34 667.74 401.14 677.5 401.16C682.15 401.17 687.39 401.97 691.5 399.66C693.67 394.96 693.81 385.79 690.5 381.74ZM836.5 486.49C831.89 482.36 828.07 477.23 823.97 472.56C818.05 465.8 812.08 459.08 806.4 452.13C793.4 436.24 779.32 421.15 765.93 405.58C757.42 395.68 747.77 378.49 732.53 382.06C718.72 385.3 719.29 396.99 719.31 408.5C719.35 432.83 719.41 457.17 719.28 481.5C719.25 487.91 717.79 505.82 720.5 510.67C724.79 513.07 733.76 513.17 737.99 510.5C740.82 505.01 739.24 487.5 739.23 480.5C739.22 464.5 739.25 448.5 739.28 432.5C739.3 423.93 738.61 415.16 739.5 406.64C747.34 413.03 754.51 423.49 761.14 431.33C777.46 450.61 793.98 469.87 810.85 488.67C819.8 498.65 828.41 515.44 844.27 511.66C858.05 508.38 856.71 493.48 856.64 482.5C856.5 459.5 856.81 436.5 856.65 413.5C856.59 405.25 858.24 390.89 856 383.5C852.09 380.09 842.61 380.05 838.14 382.5C835.18 387.8 836.84 405.56 836.8 412.5C836.72 429.17 836.81 445.83 836.76 462.5C836.73 470.48 837.17 478.54 836.5 486.49ZM265.5 510.54C269.48 513.04 274.86 512.05 279.5 512.08C290.17 512.16 300.83 512.03 311.5 512.08C328.69 512.18 352.99 514.19 369.16 509.57C395.91 501.92 414.95 474.99 415.08 447.5C415.22 419.43 395.32 390.92 367.36 384.26C350.42 380.23 329.05 382.16 311.5 382.22C300.83 382.26 290.17 382.14 279.5 382.24C275.1 382.28 269.79 381.34 265.9 383.5C263.86 388.03 263.75 397.2 266.25 401.5C273.26 403.8 284.88 402.31 292.5 402.3C305.83 402.28 319.17 402.29 332.5 402.3C341.63 402.32 351.26 401.51 360.26 403.39C375.46 406.58 387.01 418.05 392.28 432.27C394.21 437.47 395.01 442.95 394.91 448.5C394.81 453.55 393.87 458.79 391.99 463.49C385.92 478.64 372.52 489.27 356.39 491.7C348.68 492.86 340.3 492 332.5 492.01C318.83 492.03 305.17 491.97 291.5 491.98C284.18 491.99 273.29 490.63 266.5 492.69C263.57 496.81 264.12 505.73 265.5 510.54Z" fill="#000a1a" fill-rule="evenodd" stroke="#000a1a" stroke-width="0.25" stroke-linejoin="round"/>
<path d="M996.61 381.5C999 385.95 999.09 395.09 996.5 399.43C990.13 401.86 981.3 400.43 974.5 400.44C959.17 400.46 943.83 400.44 928.5 400.44C917.91 400.44 904.9 400.13 901.35 412.74C900.74 414.93 900.49 417.24 900.72 419.5C902.39 436.15 919.23 435 931.5 434.94C940.17 434.9 948.83 435 957.5 435.01C962.79 435.01 968.24 434.53 973.5 435.06C987.14 436.41 999.82 445.78 1004.98 458.52C1006.55 462.39 1007.68 466.31 1007.95 470.5C1008.26 475.33 1007.73 480.13 1006.35 484.77C1002.44 497.98 991.05 508.38 977.46 510.79C970.65 511.99 963.39 511.3 956.5 511.31C946.5 511.31 936.5 511.3 926.5 511.32C917.54 511.34 895.28 512.85 887.96 510.5C885.58 506.1 885.56 496.87 888.01 492.5C893.59 489.33 903.17 491.17 909.5 491.16C925.83 491.15 942.17 491.14 958.5 491.12C969.31 491.1 982.59 491.97 986.72 479.27C989.76 469.92 984.67 459.44 975.35 456.2C970.37 454.46 964.69 455.05 959.5 455.05C949.83 455.06 940.17 455.09 930.5 455.06C924.58 455.04 918.4 455.56 912.52 454.82C900.73 453.34 890.1 445.15 884.8 434.67C883.06 431.25 881.66 427.31 881.16 423.49C880.57 418.87 880.74 413.92 881.72 409.37C884.69 395.68 896 384.43 909.65 381.28C916.67 379.67 924.35 380.45 931.5 380.44C940.83 380.42 950.17 380.48 959.5 380.48C967.83 380.47 976.17 380.38 984.5 380.43C988.44 380.46 993.08 379.65 996.61 381.5ZM554.43 382.5C556.43 387.25 556.68 396.31 553.54 400.5C546.23 402.43 537.08 401.1 529.5 401.08C514.17 401.04 498.83 401.1 483.5 401.09C480.21 401.09 476.8 400.75 473.54 401.2C464.68 402.43 458.46 410.78 458.88 419.5C459.74 437.43 477.71 435.78 490.5 435.79C499.17 435.8 507.83 435.77 516.5 435.78C536.12 435.82 550.24 436.98 561.03 455.46C564.14 460.76 565.81 467.39 565.84 473.5C565.86 477.93 565.31 482.23 563.86 486.43C559.37 499.51 547.98 509.34 534.32 511.64C527.22 512.83 519.68 512.09 512.5 512.12C501.17 512.17 489.83 512.08 478.5 512.09C471.5 512.09 464.5 512.09 457.5 512.1C453.48 512.1 449.2 512.72 445.5 511.11C443.05 506.89 443.02 497.13 445.5 492.93C451.31 490.63 462 492 468.5 492.02C484.5 492.05 500.5 492.05 516.5 491.97C527.36 491.92 540.18 492.61 544.63 480.22C548.03 470.74 542.88 460.36 533.45 457.02C528.48 455.25 522.68 456.05 517.5 456C508.17 455.93 498.83 456 489.5 455.99C483.57 455.98 477.42 456.44 471.52 455.78C458.81 454.36 446.85 445.43 441.7 433.76C439.96 429.81 438.97 425.86 438.58 421.56C438.19 417.19 438.62 412.61 439.76 408.38C443.62 394.15 455.42 384.06 469.79 381.44C476.14 380.28 483.06 380.97 489.5 380.96C498.83 380.94 508.17 381.01 517.5 381.01C525.83 381.02 534.17 381.03 542.5 381.01C546.66 381 550.85 380.26 554.43 382.5ZM690.5 381.74C693.81 385.79 693.67 394.96 691.5 399.66C687.39 401.97 682.15 401.17 677.5 401.16C667.74 401.14 657.54 400.34 647.86 401.5C646.04 409.92 647.35 419.85 647.36 428.5C647.36 446.17 647.32 463.83 647.33 481.5C647.34 489.01 648.88 503.99 646.49 510.5C642.22 513.24 632.9 513.18 628.5 510.65C626.78 507.52 627.32 504.01 627.31 500.5C627.28 493.5 627.35 486.5 627.33 479.5C627.31 463.5 627.25 447.5 627.34 431.5C627.4 421.62 628.13 411.3 627.04 401.5C617.56 399.99 607.13 401.11 597.5 401.08C592.89 401.07 587.59 401.96 583.5 399.72C581.88 395.1 581.5 386.83 583.89 382.5C588.4 379.74 605.36 381.15 611.5 381.16C629.17 381.17 646.83 381.17 664.5 381.16C672.24 381.16 683.24 379.73 690.5 381.74ZM836.5 486.49C837.17 478.54 836.73 470.48 836.76 462.5C836.81 445.83 836.72 429.17 836.8 412.5C836.84 405.56 835.18 387.8 838.14 382.5C842.61 380.05 852.09 380.09 856 383.5C858.24 390.89 856.59 405.25 856.65 413.5C856.81 436.5 856.5 459.5 856.64 482.5C856.71 493.48 858.05 508.38 844.27 511.66C828.41 515.44 819.8 498.65 810.85 488.67C793.98 469.87 777.46 450.61 761.14 431.33C754.51 423.49 747.34 413.03 739.5 406.64C738.61 415.16 739.3 423.93 739.28 432.5C739.25 448.5 739.22 464.5 739.23 480.5C739.24 487.5 740.82 505.01 737.99 510.5C733.76 513.17 724.79 513.07 720.5 510.67C717.79 505.82 719.25 487.91 719.28 481.5C719.41 457.17 719.35 432.83 719.31 408.5C719.29 396.99 718.72 385.3 732.53 382.06C747.77 378.49 757.42 395.68 765.93 405.58C779.32 421.15 793.4 436.24 806.4 452.13C812.08 459.08 818.05 465.8 823.97 472.56C828.07 477.23 831.89 482.36 836.5 486.49ZM265.5 510.54C264.12 505.73 263.57 496.81 266.5 492.69C273.29 490.63 284.18 491.99 291.5 491.98C305.17 491.97 318.83 492.03 332.5 492.01C340.3 492 348.68 492.86 356.39 491.7C372.52 489.27 385.92 478.64 391.99 463.49C393.87 458.79 394.81 453.55 394.91 448.5C395.01 442.95 394.21 437.47 392.28 432.27C387.01 418.05 375.46 406.58 360.26 403.39C351.26 401.51 341.63 402.32 332.5 402.3C319.17 402.29 305.83 402.28 292.5 402.3C284.88 402.31 273.26 403.8 266.25 401.5C263.75 397.2 263.86 388.03 265.9 383.5C269.79 381.34 275.1 382.28 279.5 382.24C290.17 382.14 300.83 382.26 311.5 382.22C329.05 382.16 350.42 380.23 367.36 384.26C395.32 390.92 415.22 419.43 415.08 447.5C414.95 474.99 395.91 501.92 369.16 509.57C352.99 514.19 328.69 512.18 311.5 512.08C300.83 512.03 290.17 512.16 279.5 512.08C274.86 512.05 269.48 513.04 265.5 510.54Z" fill="#edf1f4" fill-rule="evenodd" stroke="#edf1f4" stroke-width="0.25" stroke-linejoin="round"/>
</svg>